<svg width="179" height="19" viewBox="0 0 179 19" fill="none" xmlns="http://www.w3.org/2000/svg">
<path d="M175.474 9.68692C176.272 9.68692 177.071 9.68692 177.869 9.68692C177.964 9.68692 178.059 9.68962 178.156 9.68962C178.238 9.68962 178.317 9.70584 178.391 9.73558C178.537 9.79776 178.637 9.90319 178.657 10.0762C178.665 10.1519 178.673 10.2303 178.665 10.3087C178.642 10.625 178.609 10.9413 178.568 11.2549C178.524 11.5929 178.499 11.9308 178.466 12.2714C178.417 12.7553 178.379 13.242 178.315 13.7259C178.225 14.3936 178.005 15.0127 177.665 15.5832C177.168 16.4131 176.495 17.043 175.699 17.5378C174.895 18.0379 174.033 18.3704 173.122 18.5732C172.459 18.7192 171.791 18.8057 171.115 18.7922C170.225 18.7733 169.349 18.6381 168.502 18.3326C167.888 18.1109 167.312 17.8135 166.8 17.381C166.237 16.9052 165.825 16.3158 165.603 15.5859C165.516 15.2966 165.467 14.9992 165.446 14.6991C165.421 14.3261 165.446 13.9584 165.503 13.588C165.59 13.023 165.672 12.458 165.756 11.8902C165.859 11.2036 165.963 10.5142 166.066 9.8275C166.168 9.15434 166.268 8.48388 166.37 7.81071C166.585 6.3941 167.215 5.2208 168.249 4.29081C168.789 3.80419 169.39 3.4284 170.04 3.13102C170.69 2.83364 171.364 2.62548 172.06 2.50923C172.618 2.41731 173.181 2.36324 173.746 2.40379C174.629 2.46597 175.489 2.64981 176.303 3.02559C176.961 3.32838 177.557 3.72849 178.048 4.29081C178.471 4.77202 178.765 5.32623 178.911 5.96425C178.942 6.09942 178.967 6.2373 178.977 6.37518C179.008 6.73744 179.013 7.10241 178.957 7.46467C178.947 7.52685 178.936 7.58633 178.916 7.6458C178.862 7.8026 178.768 7.90534 178.606 7.94318C178.519 7.96211 178.435 7.97563 178.345 7.97563C177.547 7.97563 176.748 7.97563 175.95 7.97833C175.868 7.97833 175.791 7.96752 175.712 7.94318C175.551 7.89723 175.466 7.78098 175.433 7.61877C175.423 7.5674 175.417 7.51063 175.415 7.45656C175.392 6.94831 175.162 6.56172 174.788 6.25893C174.483 6.01291 174.135 5.87504 173.764 5.80204C173.27 5.70472 172.771 5.68039 172.277 5.78582C171.394 5.97506 170.721 6.47791 170.304 7.33491C170.145 7.66202 170.053 8.00807 170.007 8.37303C169.93 8.9705 169.838 9.56526 169.756 10.1627C169.68 10.7223 169.608 11.282 169.534 11.8389C169.48 12.2444 169.424 12.6499 169.367 13.0554C169.331 13.3096 169.324 13.5664 169.36 13.8205C169.459 14.5315 169.856 14.9911 170.473 15.256C170.859 15.421 171.266 15.4669 171.681 15.4642C172.093 15.4615 172.5 15.421 172.894 15.2858C173.726 14.9992 174.261 14.4153 174.504 13.5312C174.547 13.3744 174.578 13.2149 174.609 13.0581C174.629 12.9554 174.611 12.9419 174.506 12.9365C174.447 12.9338 174.389 12.9365 174.33 12.9365C173.728 12.9365 173.127 12.9365 172.528 12.9365C172.426 12.9365 172.323 12.9365 172.223 12.9067C171.988 12.8364 171.878 12.6959 171.881 12.4363C171.881 12.2822 171.901 12.1281 171.919 11.974C171.97 11.5604 172.026 11.1468 172.083 10.7332C172.101 10.5953 172.119 10.4574 172.139 10.3195C172.149 10.2573 172.162 10.1979 172.18 10.1384C172.246 9.92212 172.385 9.78695 172.589 9.72477C172.705 9.68962 172.82 9.68962 172.937 9.68962C173.787 9.68692 174.632 9.68692 175.474 9.68692Z" fill="white"/>
<path d="M40.9609 13.0692C41.3422 13.0692 41.7236 13.0665 42.1049 13.0692C42.2303 13.0692 42.3557 13.0746 42.476 13.099C42.7063 13.1422 42.801 13.2558 42.8292 13.5045C42.8368 13.5802 42.8368 13.6586 42.8368 13.737C42.8445 14.3399 43.103 14.7859 43.5893 15.0887C43.9169 15.2915 44.2777 15.3861 44.6514 15.4402C45.2528 15.5267 45.8491 15.5105 46.448 15.4077C46.7244 15.3591 46.988 15.2671 47.2286 15.1103C47.7379 14.7751 47.9477 14.275 47.9349 13.6586C47.9324 13.491 47.8684 13.345 47.766 13.2152C47.6227 13.0314 47.4359 12.9124 47.2337 12.8124C46.9599 12.6772 46.6732 12.5853 46.3815 12.5096C45.9208 12.3853 45.455 12.2744 44.9918 12.1582C44.5055 12.0365 44.0295 11.8851 43.5586 11.7148C43.1209 11.558 42.6884 11.3877 42.2738 11.1768C41.8438 10.9578 41.4344 10.701 41.0812 10.3577C40.5233 9.81696 40.1931 9.15462 40.1342 8.35169C40.0216 6.77287 40.5053 5.43195 41.5828 4.33164C42.0563 3.84772 42.6091 3.48275 43.2028 3.19078C43.8913 2.85285 44.6155 2.63116 45.3654 2.51491C45.8722 2.43381 46.3815 2.37433 46.8984 2.41218C47.7046 2.46896 48.5005 2.59331 49.2658 2.88259C49.8493 3.10157 50.397 3.39354 50.8756 3.81528C51.4156 4.29109 51.7943 4.87504 51.9684 5.59686C52.0912 6.10511 52.0912 6.62418 52.0119 7.14054C52.0016 7.20001 51.9863 7.26219 51.9607 7.31896C51.8993 7.46225 51.7943 7.55417 51.6433 7.57579C51.5563 7.58931 51.4693 7.60013 51.3797 7.60013C50.5966 7.60283 49.8109 7.60283 49.0278 7.60283C48.9996 7.60283 48.9689 7.60013 48.9407 7.60013C48.7334 7.58931 48.6004 7.47306 48.5313 7.2703C48.5057 7.1892 48.4852 7.1081 48.4647 7.02429C48.3316 6.51874 48.0501 6.14296 47.5971 5.92128C47.052 5.65363 46.4762 5.57253 45.8824 5.62119C45.4831 5.65093 45.1018 5.75096 44.741 5.9375C44.4671 6.08078 44.2291 6.27273 44.0807 6.562C43.9322 6.85397 43.881 7.15946 44.0218 7.47306C44.1037 7.65149 44.2317 7.78937 44.3775 7.91102C44.5976 8.09486 44.8408 8.23544 45.0967 8.35709C45.3987 8.50038 45.7058 8.62203 46.0232 8.71936C46.558 8.88427 47.0981 9.03026 47.6278 9.20598C48.2497 9.41144 48.8793 9.59528 49.4808 9.86563C49.9977 10.0981 50.4789 10.3847 50.8807 10.8064C51.3209 11.2687 51.5896 11.8283 51.6945 12.4718C51.7969 13.1125 51.7611 13.7505 51.628 14.3858C51.5256 14.8805 51.3644 15.3509 51.1264 15.7916C50.786 16.4296 50.3228 16.9514 49.7623 17.3758C49.276 17.7462 48.7462 18.022 48.1832 18.2301C47.4743 18.4924 46.7474 18.6546 45.9976 18.7249C45.6034 18.7627 45.2093 18.7979 44.8126 18.8006C44.2547 18.806 43.6993 18.7465 43.1516 18.6411C42.5144 18.5167 41.9002 18.3166 41.3166 18.0139C40.664 17.6759 40.0831 17.2407 39.6326 16.6297C39.131 15.9484 38.8955 15.1779 38.916 14.3182C38.9211 14.0938 38.9339 13.8695 38.9851 13.6505C38.9902 13.6288 38.9928 13.6045 38.9979 13.5829C39.0824 13.2368 39.2078 13.1206 39.5456 13.0909C39.6761 13.08 39.8092 13.08 39.9397 13.08C40.2878 13.0665 40.6231 13.0665 40.9609 13.0692C40.9609 13.0692 40.9609 13.0665 40.9609 13.0692Z" fill="white"/>
<path d="M110.356 13.0692C110.737 13.0692 111.118 13.0665 111.5 13.0692C111.617 13.0692 111.735 13.0747 111.85 13.0936C112.109 13.1368 112.219 13.2693 112.232 13.5451C112.234 13.6072 112.232 13.6694 112.234 13.7316C112.242 14.3318 112.5 14.7832 112.984 15.086C113.312 15.2888 113.672 15.3834 114.046 15.4375C114.648 15.524 115.244 15.5078 115.843 15.405C116.134 15.3537 116.411 15.2536 116.662 15.0833C116.959 14.8833 117.158 14.6048 117.261 14.2507C117.309 14.0803 117.342 13.9046 117.34 13.7262C117.337 13.4964 117.261 13.3044 117.11 13.1422C116.969 12.9908 116.797 12.8881 116.616 12.7989C116.314 12.6529 115.996 12.5583 115.676 12.4745C115.072 12.3177 114.463 12.1744 113.862 12.0041C113.097 11.7878 112.347 11.5175 111.633 11.1525C111.136 10.8984 110.67 10.5902 110.289 10.1576C109.862 9.6737 109.598 9.10327 109.537 8.44093C109.404 7.02972 109.77 5.77531 110.64 4.69393C111.041 4.19379 111.528 3.79638 112.068 3.47197C113.033 2.89343 114.074 2.58253 115.172 2.44736C115.781 2.37166 116.385 2.39599 116.992 2.47169C117.35 2.51494 117.703 2.58523 118.049 2.67985C118.786 2.87991 119.482 3.17729 120.096 3.66121C120.567 4.03429 120.946 4.48847 121.189 5.0589C121.34 5.41575 121.432 5.78883 121.453 6.17813C121.471 6.47281 121.463 6.76748 121.422 7.05946C121.409 7.15949 121.386 7.25681 121.338 7.34602C121.276 7.46227 121.189 7.53797 121.066 7.5596C120.966 7.57582 120.862 7.58934 120.762 7.58934C119.984 7.59204 119.208 7.59204 118.43 7.59204C118.407 7.59204 118.387 7.59204 118.364 7.58934C118.118 7.57041 117.993 7.47038 117.916 7.21896C117.903 7.17571 117.893 7.12975 117.882 7.08379C117.731 6.42415 117.335 6.00511 116.733 5.79154C116.145 5.58337 115.541 5.53741 114.932 5.65095C114.548 5.72395 114.177 5.85101 113.857 6.09973C113.593 6.30519 113.417 6.56472 113.35 6.91347C113.304 7.15138 113.353 7.35954 113.47 7.55419C113.552 7.69207 113.662 7.80561 113.785 7.90834C114 8.08677 114.238 8.22195 114.486 8.3409C114.788 8.48418 115.095 8.60854 115.413 8.70586C115.948 8.87078 116.488 9.01676 117.017 9.19249C117.639 9.39795 118.269 9.58179 118.87 9.85213C119.392 10.0873 119.884 10.3766 120.286 10.8092C120.774 11.3309 121.041 11.9608 121.117 12.6854C121.192 13.3964 121.12 14.0939 120.925 14.7751C120.649 15.7538 120.124 16.5567 119.369 17.1947C118.86 17.6246 118.295 17.9436 117.685 18.1815C116.946 18.4681 116.183 18.6411 115.397 18.7168C114.916 18.7627 114.433 18.806 113.949 18.7898C113.079 18.76 112.229 18.6195 111.407 18.3113C110.755 18.0652 110.143 17.7354 109.611 17.2569C109.137 16.8352 108.769 16.3323 108.541 15.7213C108.357 15.2239 108.285 14.7048 108.321 14.1723C108.334 13.9938 108.336 13.8154 108.38 13.6424C108.398 13.5748 108.416 13.5072 108.434 13.4423C108.492 13.2342 108.633 13.1206 108.83 13.0909C108.938 13.0747 109.05 13.0692 109.158 13.0665C109.565 13.0665 109.959 13.0665 110.356 13.0692C110.356 13.0692 110.356 13.0665 110.356 13.0692Z" fill="white"/>
<path d="M102.703 2.75551C104.418 2.75551 106.133 2.75551 107.848 2.75551C107.981 2.75551 108.111 2.7528 108.242 2.77984C108.49 2.83391 108.605 2.97719 108.615 3.24754C108.623 3.4503 108.595 3.65035 108.567 3.84771C108.51 4.25322 108.485 4.66415 108.439 5.06967C108.418 5.2535 108.393 5.43734 108.357 5.61847C108.303 5.90234 108.127 6.05914 107.86 6.09969C107.753 6.11591 107.64 6.11591 107.533 6.11591C106.514 6.11591 105.496 6.11591 104.477 6.11591C104.426 6.11591 104.375 6.11591 104.323 6.11591C104.137 6.11861 104.106 6.08887 104.08 6.33759C104.05 6.67553 104.001 7.01346 103.957 7.35139C103.888 7.89479 103.817 8.43818 103.748 8.98428C103.712 9.27626 103.684 9.56823 103.648 9.8602C103.581 10.4036 103.507 10.947 103.44 11.4931C103.405 11.7851 103.376 12.077 103.341 12.369C103.274 12.9124 103.2 13.4558 103.133 14.0019C103.098 14.2939 103.069 14.5859 103.034 14.8778C102.967 15.4212 102.893 15.9673 102.826 16.5107C102.79 16.8027 102.762 17.0947 102.726 17.3866C102.706 17.5461 102.683 17.7083 102.652 17.8679C102.583 18.2382 102.381 18.3707 102.084 18.4167C102.012 18.4275 101.938 18.4275 101.864 18.4275C101.081 18.4275 100.295 18.4275 99.512 18.4275C99.3866 18.4275 99.2637 18.4194 99.1434 18.3788C99.0052 18.3328 98.9208 18.2382 98.8849 18.0895C98.8593 17.9814 98.8568 17.8733 98.8721 17.7678C98.9566 17.1244 99.0411 16.481 99.1281 15.8376C99.2279 15.1022 99.3277 14.3669 99.4301 13.6315C99.5094 13.0638 99.5887 12.4988 99.6655 11.9338C99.75 11.3282 99.8293 10.7226 99.9138 10.1197C99.9803 9.63041 100.052 9.14108 100.119 8.65176C100.198 8.07051 100.272 7.48656 100.349 6.90532C100.374 6.71337 100.41 6.52413 100.433 6.33219C100.456 6.12672 100.451 6.12132 100.259 6.12132C99.1818 6.12132 98.1044 6.12132 97.0269 6.12132C96.9168 6.12132 96.8068 6.12132 96.6993 6.10509C96.4229 6.06184 96.3026 5.91045 96.3129 5.61307C96.318 5.46708 96.341 5.32109 96.364 5.1751C96.4459 4.63171 96.5304 4.09102 96.6123 3.54762C96.6328 3.40974 96.6584 3.27457 96.7121 3.14481C96.794 2.95286 96.9296 2.83661 97.119 2.79065C97.2419 2.76091 97.3647 2.75551 97.4901 2.75551C97.9738 2.75551 98.4575 2.75551 98.9412 2.75551C100.195 2.75551 101.449 2.75551 102.703 2.75551Z" fill="white"/>
<path d="M143.703 18.4301C142.055 18.4301 140.404 18.4301 138.756 18.4301C138.625 18.4301 138.492 18.4328 138.364 18.3922C138.139 18.3192 138.052 18.2057 138.049 17.9543C138.047 17.8705 138.049 17.784 138.06 17.7002C138.154 17.0108 138.254 16.3241 138.349 15.6347C138.438 14.9832 138.525 14.3316 138.615 13.6828C138.72 12.9096 138.827 12.1364 138.935 11.3632C139.035 10.636 139.137 9.90878 139.237 9.18155C139.342 8.42458 139.447 7.66491 139.552 6.90794C139.651 6.18882 139.751 5.46969 139.854 4.75057C139.912 4.32343 139.971 3.89358 140.035 3.46643C140.051 3.3664 140.076 3.26908 140.107 3.17446C140.171 2.9744 140.304 2.85274 140.493 2.79867C140.593 2.76894 140.696 2.75812 140.798 2.75812C141.553 2.75812 142.308 2.75542 143.063 2.76083C143.158 2.76083 143.255 2.77434 143.344 2.79867C143.531 2.84734 143.631 2.9744 143.646 3.17716C143.662 3.35559 143.639 3.53402 143.616 3.70974C143.547 4.25314 143.475 4.79924 143.408 5.34263C143.319 6.06446 143.232 6.78358 143.142 7.5054C143.04 8.33266 142.938 9.16262 142.833 9.98988C142.776 10.4414 142.72 10.8955 142.661 11.347C142.592 11.8769 142.52 12.4041 142.454 12.9312C142.415 13.2367 142.395 13.5476 142.346 13.8531C142.298 14.1748 142.27 14.4966 142.226 14.8183C142.221 14.8561 142.221 14.8967 142.216 14.9345C142.193 15.0751 142.226 15.0913 142.357 15.0913C142.423 15.0913 142.49 15.0913 142.554 15.0913C144.678 15.0913 146.805 15.0913 148.929 15.0913C149.047 15.0913 149.164 15.0967 149.279 15.1075C149.343 15.1156 149.41 15.1346 149.469 15.1643C149.615 15.2346 149.691 15.3535 149.707 15.5239C149.722 15.6861 149.704 15.8483 149.691 16.0105C149.64 16.589 149.579 17.1649 149.525 17.7434C149.482 18.203 149.277 18.4112 148.824 18.4328C148.729 18.4382 148.634 18.4355 148.537 18.4355C146.927 18.4301 145.315 18.4301 143.703 18.4301Z" fill="white"/>
<path d="M7.23706 3.22575C7.41365 3.12843 7.6056 3.08247 7.79242 3.01488C8.22238 2.86349 8.6549 2.72021 9.08998 2.58233C9.54553 2.43634 10.0011 2.29576 10.4592 2.16059C10.9173 2.02271 11.3754 1.88754 11.8361 1.76318C12.3531 1.6226 12.8726 1.49554 13.3947 1.36577C13.7863 1.26845 14.1804 1.17653 14.572 1.09002C15.3449 0.919701 16.1203 0.760197 16.9009 0.622321C17.5638 0.503368 18.2292 0.392526 18.8972 0.297905C18.9407 0.292498 18.9842 0.292498 19.0277 0.289795C19.043 0.351975 19.0021 0.370899 18.9611 0.389823C18.8997 0.416858 18.8332 0.424968 18.7692 0.438485C18.1703 0.565548 18.1703 0.565548 18.1703 1.21979C18.1703 1.9362 18.1729 2.65262 18.1678 3.36904C18.1678 3.54747 18.1959 3.70427 18.3188 3.83403C18.3597 4.00705 18.219 3.98002 18.1422 3.99624C17.597 4.11519 17.057 4.25037 16.517 4.39094C15.2016 4.73699 13.904 5.14521 12.6295 5.62372C12.4094 5.70753 12.1842 5.77512 11.9641 5.86703C11.7235 5.96436 11.726 5.97788 11.9103 6.1563C12.1048 6.34284 12.2942 6.53749 12.4964 6.71592C12.5808 6.79162 12.6499 6.88083 12.6935 6.98897C12.911 7.20254 13.1311 7.41882 13.3486 7.63239C13.5585 7.83515 13.7684 8.03791 13.9782 8.24067C13.9833 8.24608 13.9885 8.25149 13.9936 8.25689C14.0755 8.3434 14.0729 8.37314 13.9757 8.42451C13.904 8.46236 13.8298 8.4948 13.7556 8.52724C13.6225 8.58942 13.4894 8.6489 13.3538 8.71107C13.1695 8.8868 12.934 8.95979 12.7139 9.05982C11.0632 9.80057 9.42013 10.5602 7.77195 11.3037C7.69773 11.3361 7.62607 11.3767 7.54417 11.3794C7.48787 11.3821 7.43669 11.374 7.46228 11.2902C7.72844 11.0901 7.74892 10.8036 7.74892 10.49C7.74124 8.24067 7.74636 5.98869 7.74636 3.73941C7.74636 3.6556 7.7438 3.56909 7.7438 3.48529C7.7438 3.31767 7.67214 3.24468 7.51346 3.2636C7.41877 3.27171 7.31896 3.30415 7.23706 3.22575Z" fill="#62A95C"/>
<path d="M16.9568 11.72C17.1308 11.6633 17.3048 11.6092 17.4789 11.5524C17.8909 11.4227 18.3055 11.2983 18.7176 11.1658C19.3523 10.9631 19.987 10.7549 20.6114 10.517C20.6473 10.4792 20.7061 10.517 20.742 10.4737H20.7445C20.9032 10.3034 21.1284 10.298 21.3204 10.2088C21.4918 10.1277 21.4995 10.1088 21.3562 9.98712C20.7803 9.48969 20.2301 8.95981 19.6517 8.46237C19.5954 8.41371 19.5314 8.37316 19.5186 8.28664L19.5161 8.28394C19.4956 8.27583 19.4802 8.25961 19.4725 8.24069H19.47C19.4521 8.22987 19.4367 8.21636 19.4239 8.20013C19.2627 8.05415 19.104 7.90816 18.9428 7.75947C18.9044 7.72433 18.866 7.68918 18.8302 7.64863C18.7995 7.61619 18.8097 7.57834 18.8532 7.55671C18.9249 7.51886 18.9991 7.48372 19.0733 7.45128C19.818 7.10523 20.5628 6.76189 21.305 6.41855C22.0216 6.08603 22.7408 5.7535 23.4574 5.42368C23.5034 5.40205 23.552 5.38853 23.6007 5.36961C23.6339 5.32635 23.7005 5.37231 23.7286 5.31284L23.7235 5.31554C23.7542 5.29932 23.7926 5.30473 23.8182 5.27229C23.8438 5.24795 23.8848 5.25606 23.9078 5.22903C23.9667 5.22092 24.023 5.21281 24.0818 5.202C24.22 5.17496 24.2891 5.24795 24.3147 5.38042C24.3352 5.48045 24.3301 5.58048 24.3301 5.68051C24.3301 8.58403 24.3301 11.4875 24.3301 14.3884C24.3301 14.5208 24.3352 14.6506 24.3019 14.7804C24.2942 14.8047 24.284 14.829 24.2712 14.8534C24.2456 14.8966 24.2098 14.9236 24.1714 14.948C24.1535 14.9588 24.1356 14.9669 24.1177 14.975C24.0921 14.9885 24.0639 14.9993 24.0383 15.0129C24.0204 15.021 24.0025 15.0291 23.9846 15.0372C23.9462 15.0534 23.9129 15.0777 23.8771 15.0994C23.076 15.4211 22.2622 15.6995 21.4432 15.9645C20.724 16.197 19.9998 16.4187 19.2678 16.6052C18.6868 16.7539 18.1084 16.8999 17.5275 17.0486C17.356 17.0918 17.1845 17.1297 17.0105 17.154C16.6113 17.1134 16.5857 17.0864 16.5857 16.6593C16.5857 15.2481 16.5908 13.8369 16.5806 12.4229C16.5754 12.0931 16.6548 11.8471 16.9568 11.72Z" fill="#46A74B"/>
<path d="M7.23653 3.22605C7.30307 3.23146 7.36705 3.22605 7.43104 3.19901C7.51549 3.16657 7.60507 3.17739 7.69208 3.18279C7.76118 3.1882 7.79957 3.22875 7.80725 3.30175C7.81237 3.35581 7.81237 3.40988 7.81237 3.46395C7.81237 5.89436 7.81237 8.32748 7.81237 10.7579C7.81237 10.8038 7.81749 10.8525 7.80981 10.8958C7.78678 11.0445 7.74327 11.1823 7.58971 11.2418C7.53597 11.2634 7.48222 11.2932 7.46175 11.3608C7.46175 11.4635 7.37729 11.477 7.31331 11.504C6.72211 11.7717 6.13092 12.0366 5.54484 12.3124C5.36569 12.3962 5.22749 12.3692 5.09441 12.2178C4.67981 11.7392 4.278 11.2526 3.87363 10.766C3.68424 10.5416 3.49486 10.3172 3.30803 10.0901C3.24917 10.0171 3.13656 9.93063 3.29523 9.83872C3.56652 9.9036 3.56652 9.9036 3.56652 9.60081C3.56652 8.21123 3.56652 6.82165 3.56652 5.43207C3.56652 5.27798 3.58955 5.12117 3.54348 4.97248C3.48462 4.78865 3.285 4.9103 3.18774 4.79946C3.26964 4.73188 3.37201 4.70484 3.46415 4.66699C4.1398 4.39394 4.81545 4.12089 5.49622 3.85866C6.05926 3.64238 6.62742 3.43962 7.19302 3.23146C7.20838 3.22605 7.22373 3.22605 7.23653 3.22605Z" fill="#54A651"/>
<path d="M27.1655 4.42352C27.2397 4.43974 27.2935 4.49652 27.3524 4.53977C28.1918 5.17509 29.0312 5.8104 29.8681 6.44842C30.8253 7.17565 31.7825 7.90018 32.7396 8.62741C33.2208 8.99237 33.7019 9.35734 34.1831 9.72501C34.2471 9.77367 34.3085 9.82774 34.3673 9.87641C34.3494 9.96021 34.288 9.97914 34.2394 10.0062C34.0654 10.1035 33.8888 10.1981 33.7122 10.2954C33.2771 10.5928 32.8087 10.8307 32.343 11.074C31.3013 11.6201 30.2827 12.2095 29.2334 12.7394C28.6473 13.034 28.0562 13.3233 27.4624 13.6018C27.3856 13.6396 27.2577 13.7721 27.1988 13.5585C27.2884 13.3828 27.3114 13.1963 27.3114 12.9989C27.3088 10.4009 27.3088 7.80285 27.3114 5.20482C27.3114 4.99936 27.2909 4.80471 27.1937 4.62358C27.1655 4.5614 27.1323 4.49652 27.1655 4.42352Z" fill="#60AE5A"/>
<path d="M27.1662 4.42337C27.179 4.45041 27.1918 4.47744 27.2071 4.50448C27.33 4.69372 27.3888 4.89648 27.3863 5.13168C27.3811 7.78378 27.3811 10.4359 27.3811 13.088C27.3811 13.1339 27.3786 13.1799 27.3811 13.2258C27.3888 13.3502 27.3504 13.4529 27.2711 13.5421C27.2455 13.5692 27.2276 13.6043 27.2071 13.6341C27.2097 13.7503 27.115 13.7611 27.0484 13.7909C26.186 14.1639 25.3286 14.5559 24.4482 14.8831C24.374 14.9101 24.2998 14.9561 24.2204 14.8939C24.2537 14.7587 24.2614 14.6208 24.2614 14.483C24.2588 11.5064 24.2614 8.52993 24.2588 5.55342C24.2588 5.47502 24.2588 5.39932 24.2511 5.32363C24.246 5.26685 24.1948 5.229 24.1385 5.25063C24.0541 5.28037 23.9824 5.27496 23.9082 5.229C24.0438 5.11816 24.2102 5.0722 24.3612 5.00191C25.042 4.6802 25.7279 4.3666 26.4137 4.0503C26.4547 4.03137 26.4956 4.01515 26.5366 3.99893C26.5724 3.98541 26.6108 3.98541 26.6415 4.01245C26.813 4.15032 27.0126 4.25576 27.1662 4.42337Z" fill="#53AA51"/>
<path d="M6.67072 14.1424C6.56067 14.0072 6.44806 13.8748 6.33801 13.7396C6.3201 13.718 6.2945 13.6963 6.30218 13.6612C6.30986 13.6179 6.34825 13.6287 6.37384 13.626C6.55043 13.6152 6.72446 13.6017 6.90105 13.5963C7.25935 13.5855 7.61765 13.553 7.97339 13.5125C8.2933 13.4746 8.61577 13.453 8.93568 13.4152C9.532 13.3395 10.1283 13.2638 10.7195 13.1556C11.1674 13.0745 11.6153 13.0015 12.0606 12.915C12.4931 12.8312 12.9205 12.7285 13.353 12.6393C13.4247 12.6231 13.4989 12.6204 13.5705 12.6122C13.5808 12.6961 13.5168 12.7123 13.4656 12.7393C13.4068 12.769 13.3453 12.7988 13.2813 12.8177C12.9998 12.8961 12.9256 13.0881 12.9282 13.3881C12.941 14.7642 12.9333 16.1403 12.9333 17.519C12.9333 17.6515 12.9307 17.7813 12.9614 17.911C12.9896 18.0381 12.9 18.0516 12.8207 18.0624C12.0043 18.1922 11.1879 18.3247 10.3689 18.4301C10.2537 18.4382 10.1513 18.4004 10.0746 18.3057C9.62925 17.7542 9.16346 17.2216 8.71303 16.6728C8.21397 16.0673 7.70211 15.4752 7.21073 14.8642C7.02134 14.6317 6.77309 14.4452 6.67072 14.1424Z" fill="#62AF5C"/>
<path d="M12.9646 17.957C12.9211 17.9462 12.8776 17.93 12.875 17.8732C12.8724 17.8191 12.8699 17.7651 12.8699 17.711C12.8699 16.1971 12.8699 14.6831 12.8699 13.1665C12.8699 12.9151 12.8852 12.8934 13.1284 12.8204C13.1565 12.8123 13.1872 12.8123 13.2051 12.788C13.2563 12.7231 13.328 12.715 13.3971 12.6934C13.456 12.6745 13.5327 12.6799 13.5711 12.6096H13.5686C13.6197 12.5636 13.6965 12.6177 13.7477 12.5636C13.7733 12.5528 13.7989 12.5366 13.827 12.5285C14.3184 12.4068 14.8098 12.2906 15.2986 12.1635C15.8028 12.031 16.3044 11.8905 16.8061 11.7526C16.8547 11.7391 16.9059 11.7309 16.9571 11.7228C16.9366 11.7958 16.8854 11.8364 16.8265 11.8715C16.6986 11.9499 16.6474 12.0689 16.6499 12.2203C16.6525 12.2743 16.6499 12.3284 16.6499 12.3825C16.6499 13.8126 16.6499 15.2454 16.6499 16.6756C16.6499 16.7134 16.6474 16.754 16.6499 16.7918C16.6551 16.8675 16.632 16.9486 16.6781 17.0189C16.7293 17.0946 16.8112 17.0649 16.8803 17.0784C16.9366 17.0892 16.9929 17.1081 17.0492 17.1244C17.062 17.1352 17.0645 17.146 17.0594 17.1541C17.0543 17.1622 17.0492 17.1676 17.0441 17.1676C15.9487 17.4326 14.8559 17.7002 13.7477 17.9002C13.6607 17.9165 13.5737 17.93 13.4867 17.93C13.4329 17.93 13.3766 17.9273 13.3229 17.9462C13.2922 17.9543 13.2614 17.9597 13.2333 17.9597C13.1693 17.957 13.1028 17.9408 13.0413 17.9814C13.0132 17.9841 12.985 17.9814 12.9646 17.957Z" fill="#57AB53"/>
<path d="M18.3262 3.87736C18.2392 3.86384 18.1957 3.78544 18.1343 3.73137C18.1163 3.71515 18.1061 3.6773 18.1035 3.64756C18.0984 3.59349 18.101 3.53942 18.101 3.48535C18.101 2.61484 18.101 1.74162 18.101 0.871107C18.101 0.825149 18.101 0.77919 18.101 0.733231C18.101 0.684569 18.1215 0.64672 18.1573 0.616982C18.1957 0.58454 18.2341 0.546692 18.2648 0.503437C18.2929 0.462885 18.3262 0.446664 18.3748 0.438554C18.5744 0.406112 18.7766 0.370967 18.9763 0.335822C18.9942 0.333119 19.007 0.306084 19.0249 0.292567C19.1631 0.238498 19.3115 0.238498 19.4548 0.219573C20.0358 0.143876 20.6168 0.0844003 21.1977 0.00599989C21.3385 -0.0129243 21.4485 0.0114068 21.5637 0.100621C22.137 0.541285 22.7154 0.973839 23.2912 1.4091C23.9336 1.89302 24.576 2.37964 25.2158 2.86626C25.2644 2.90411 25.3591 2.92303 25.3335 3.00684C25.313 3.07172 25.2311 3.03928 25.1748 3.04199C24.9701 3.0501 24.7654 3.0555 24.5632 3.08524C24.3252 3.20419 24.0615 3.18527 23.8133 3.19608C22.8996 3.23123 21.9911 3.35559 21.0851 3.47184C20.2431 3.57998 19.4088 3.73948 18.5745 3.90709C18.4926 3.92331 18.4055 3.95035 18.3262 3.87736Z" fill="#51A650"/>
<path d="M18.3251 3.8773C18.535 3.83945 18.7448 3.80971 18.9521 3.76646C19.4461 3.66373 19.9426 3.57181 20.4416 3.49882C20.6873 3.46367 20.933 3.41501 21.1787 3.37986C21.3374 3.35553 21.4986 3.34201 21.6573 3.32309C22.0207 3.27984 22.3841 3.23928 22.7475 3.19873C22.7706 3.19603 22.7911 3.19332 22.8141 3.19062C23.0982 3.1717 23.3822 3.15277 23.6689 3.13655C23.9325 3.12033 24.1935 3.10141 24.4572 3.08519C24.493 3.08248 24.5288 3.08519 24.5672 3.08519C24.5698 3.12303 24.5749 3.16359 24.6056 3.19062C24.6645 3.24739 24.7233 3.30687 24.7847 3.36094C24.9383 3.49071 25.097 3.61506 25.2505 3.74483C25.2992 3.78538 25.3555 3.82593 25.3811 3.90974C25.3196 3.92867 25.2659 3.953 25.2121 3.96111C25.0458 3.98273 24.8794 3.99896 24.7105 4.02058C24.6081 4.0341 24.5083 4.05302 24.4085 4.07195C24.1424 4.11791 23.8762 4.15846 23.61 4.20712C23.1724 4.28823 22.7348 4.37744 22.2946 4.45043C21.9055 4.51532 21.5242 4.62346 21.1326 4.67482C20.9816 4.69375 20.8332 4.74241 20.6822 4.77485C20.3316 4.84784 19.981 4.92084 19.6303 4.99653C19.5587 5.01275 19.487 5.02897 19.4154 5.0452C19.0084 5.13711 18.6015 5.22633 18.1946 5.32095C17.803 5.41557 17.4114 5.51019 17.0224 5.61563C16.3647 5.79405 15.707 5.97248 15.0518 6.16173C14.6372 6.28338 14.2302 6.43207 13.8156 6.55373C13.4983 6.64564 13.1886 6.76189 12.8738 6.85922C12.8252 6.87544 12.7766 6.89436 12.7305 6.91599C12.6998 6.92951 12.6998 6.96465 12.6921 6.99439C12.6793 6.98898 12.664 6.98358 12.6537 6.97547C12.4183 6.74567 12.1828 6.51317 11.9474 6.28068C11.8629 6.19687 11.7708 6.11847 11.6863 6.03466C11.6377 5.986 11.6479 5.94274 11.7145 5.91301C11.8168 5.86975 11.9167 5.8265 12.0216 5.78865C12.559 5.59129 13.0965 5.39124 13.6365 5.202C14.0537 5.05871 14.4734 4.92895 14.8931 4.80188C15.3768 4.65319 15.8631 4.50991 16.3493 4.37474C16.6232 4.29634 16.9021 4.23145 17.1811 4.16657C17.5445 4.08276 17.9079 4.00166 18.2714 3.92056C18.2893 3.90704 18.3072 3.89082 18.3251 3.8773Z" fill="#030305"/>
<path d="M3.22872 9.87894C3.24664 9.91138 3.25687 9.95194 3.27991 9.97897C3.54095 10.2899 3.80456 10.6008 4.06561 10.9117C4.35992 11.2631 4.65168 11.6173 4.94856 11.9714C5.03046 12.0687 5.12003 12.1607 5.20193 12.2607C5.26335 12.3364 5.32989 12.3472 5.41691 12.3066C5.56279 12.2364 5.71379 12.1769 5.86223 12.1093C6.35873 11.8849 6.85523 11.6605 7.35173 11.4334C7.39012 11.4145 7.42595 11.3875 7.46434 11.3631C7.66652 11.3199 7.84567 11.2063 8.03506 11.1252C8.52132 10.9117 9.00503 10.69 9.48873 10.4683C9.88542 10.2872 10.2796 10.1033 10.6762 9.9222C11.1062 9.72484 11.5362 9.5329 11.9661 9.33555C12.4038 9.13549 12.8388 8.93273 13.2739 8.73267C13.2995 8.72186 13.3302 8.71916 13.3584 8.71375C13.343 8.75701 13.3225 8.79485 13.3635 8.84081C13.4582 8.94895 13.5452 9.0625 13.6399 9.17063C13.7448 9.28959 13.8549 9.40313 13.9624 9.51938C14.0289 9.59237 14.0903 9.66807 14.1287 9.75729C14.1159 9.79243 14.0929 9.80865 14.0647 9.82217C13.5861 10.0114 13.105 10.1979 12.6264 10.3926C12.1632 10.5818 11.7025 10.7792 11.2393 10.9684C10.9117 11.1036 10.5815 11.2307 10.254 11.3631C9.89822 11.5064 9.54504 11.6524 9.1893 11.7957C8.91545 11.9065 8.64161 12.0093 8.36777 12.1201C7.99923 12.2715 7.63325 12.4256 7.26471 12.577C7.07277 12.6554 6.88082 12.7257 6.68887 12.8041C6.34081 12.9447 5.99275 13.0852 5.64724 13.2258C5.55255 13.2637 5.45274 13.2934 5.35805 13.3367C5.27359 13.3745 5.21729 13.3421 5.16866 13.2745C4.95368 12.9825 4.7387 12.6905 4.52116 12.3986C4.30874 12.1147 4.09376 11.8308 3.88134 11.547C3.69451 11.2983 3.51024 11.0495 3.32597 10.8008C3.08284 10.4737 2.83715 10.1466 2.59402 9.81947C2.42255 9.58967 2.25107 9.35988 2.07704 9.13008C1.8595 8.84081 1.64196 8.54884 1.42442 8.25957C1.26063 8.04059 1.0994 7.82431 0.935601 7.60533C0.669436 7.24847 0.40327 6.88891 0.137104 6.53206C0.108952 6.49691 0.0833593 6.45906 0.0603257 6.41851C0.0372922 6.38066 -0.00877497 6.35093 0.00146217 6.29956C0.0116993 6.24549 0.0782407 6.26441 0.103834 6.22657C0.108952 6.22116 0.114071 6.21305 0.11663 6.20764C0.300899 6.24549 0.372559 6.42392 0.477489 6.54828C1.00214 7.17278 1.53447 7.78917 2.04633 8.42718C2.05913 8.4407 2.07192 8.45692 2.08472 8.47044C2.08984 8.47855 2.09752 8.48396 2.10264 8.49207C2.11543 8.50558 2.12823 8.5191 2.13847 8.53532C2.14358 8.54073 2.15126 8.54884 2.15638 8.55695C2.16918 8.57047 2.17941 8.58398 2.18965 8.5975C2.19989 8.61102 2.21013 8.62724 2.2178 8.64076C2.2306 8.66238 2.2434 8.68401 2.25875 8.70294C2.26899 8.71645 2.27923 8.72727 2.2869 8.74078C2.29714 8.7516 2.30738 8.76512 2.31762 8.77593C2.32273 8.78134 2.32785 8.78674 2.33297 8.79215C2.34321 8.80296 2.35345 8.81378 2.36368 8.82459L2.37904 8.84081C2.38928 8.85163 2.39951 8.86244 2.40975 8.87325L2.42511 8.88947C2.43534 8.90029 2.44558 8.9111 2.45582 8.92192C2.46094 8.92732 2.46605 8.93273 2.47117 8.93814C2.48397 8.94895 2.49421 8.95976 2.50444 8.97328C2.50956 8.97869 2.51468 8.9841 2.52236 8.99221C2.53515 9.00572 2.54539 9.01654 2.55563 9.03005C2.56587 9.04357 2.5761 9.05979 2.58378 9.07331C2.6017 9.10305 2.62217 9.13008 2.6452 9.15712C2.658 9.17063 2.66824 9.18145 2.67847 9.19497C2.68871 9.20848 2.70151 9.2193 2.71175 9.23281C2.71686 9.23822 2.72198 9.24633 2.7271 9.25174C2.73734 9.26255 2.75013 9.27607 2.76037 9.28688C2.76549 9.29229 2.77061 9.2977 2.77829 9.30581C2.79108 9.31662 2.80132 9.33014 2.81412 9.34366C2.81924 9.34906 2.82691 9.35717 2.83203 9.36258C2.84483 9.3761 2.85507 9.38962 2.8653 9.40313C2.8781 9.41935 2.88834 9.43287 2.89857 9.44909C2.93696 9.50857 2.98815 9.55993 3.03421 9.6113C3.04701 9.62482 3.05981 9.63833 3.07004 9.65185C3.08028 9.66537 3.09308 9.67889 3.10332 9.6897C3.10843 9.69511 3.11355 9.70322 3.11867 9.70862C3.12891 9.71944 3.13915 9.73295 3.14938 9.74377C3.1545 9.74918 3.15962 9.75458 3.16474 9.75999C3.17498 9.7708 3.18521 9.78162 3.19545 9.79513C3.20057 9.80054 3.20569 9.80595 3.21081 9.81406C3.22104 9.82758 3.22616 9.84109 3.23128 9.85731C3.23128 9.86272 3.23128 9.87083 3.22872 9.87894Z" fill="#030305"/>
<path d="M24.2195 14.8914C24.263 14.8833 24.3065 14.8779 24.3474 14.8617C25.2662 14.5048 26.1722 14.1101 27.0756 13.7127C27.1217 13.6938 27.1626 13.6587 27.2061 13.6316C27.4237 13.5857 27.6131 13.4613 27.8127 13.3694C28.2478 13.1666 28.6777 12.9531 29.1077 12.7368C29.5377 12.5178 29.9599 12.2907 30.3848 12.0636C30.9401 11.7662 31.4929 11.4661 32.0457 11.1661C32.5218 10.9092 32.9952 10.6497 33.4713 10.3929C33.548 10.3523 33.6197 10.2928 33.7118 10.2928C33.699 10.3199 33.6811 10.3469 33.6786 10.3767C33.6735 10.4199 33.7067 10.4469 33.7349 10.4686C33.9499 10.6416 34.1648 10.8146 34.3798 10.9876C34.4668 11.0579 34.5538 11.1282 34.6383 11.2012C34.6793 11.2391 34.669 11.2823 34.6178 11.3066C33.9703 11.5932 33.3228 11.8771 32.6779 12.1663C32.3964 12.2934 32.1174 12.4286 31.8359 12.5583C31.5211 12.7016 31.2037 12.8395 30.8864 12.9828C30.7789 13.0315 30.6689 13.0774 30.5639 13.1288C30.1979 13.3072 29.8089 13.4208 29.4327 13.564C29.2075 13.6505 28.9797 13.7316 28.7468 13.8046C28.5011 13.8803 28.2631 13.9804 28.0226 14.0642C27.6745 14.1858 27.329 14.3048 26.9784 14.421C26.7352 14.5021 26.4895 14.5751 26.2439 14.6535C25.7269 14.8184 25.2125 14.9942 24.6878 15.1375C24.4626 15.1996 24.2425 15.2834 24.0173 15.3537C23.7588 15.4321 23.4977 15.5078 23.2367 15.5808C23.0959 15.6214 22.9552 15.6619 22.8144 15.6998C22.3845 15.8214 21.9545 15.9404 21.5245 16.0593C21.1714 16.1567 20.8207 16.2621 20.4675 16.3513C20.227 16.4135 19.9864 16.4811 19.7458 16.5378C19.5539 16.5838 19.3645 16.6514 19.1726 16.6757C18.9166 16.7109 18.6786 16.8136 18.4252 16.8487C18.3024 16.865 18.1872 16.9217 18.0669 16.9515C17.8903 16.9947 17.7112 17.0326 17.5346 17.0704C17.5193 17.0623 17.5141 17.0515 17.5193 17.0434C17.5244 17.0353 17.5295 17.0299 17.5346 17.0299C17.6882 16.9839 17.8417 16.9298 17.9978 16.892C18.7733 16.7055 19.5411 16.4865 20.3063 16.2513C20.8949 16.0701 21.4861 15.889 22.0697 15.6917C22.689 15.4808 23.3058 15.2672 23.9123 15.0212C23.9379 14.9996 23.9763 15.0077 24.0019 14.9806C24.0173 14.9779 24.0301 14.9725 24.0454 14.9698C24.0633 14.959 24.0813 14.9482 24.0992 14.9374C24.112 14.9401 24.1222 14.9374 24.1324 14.9293C24.1555 14.9077 24.1939 14.9158 24.2195 14.8914Z" fill="#030305"/>
<path d="M2.04853 8.47594C1.9999 8.42728 1.94871 8.38402 1.90521 8.33265C1.60833 7.9785 1.31401 7.62435 1.01969 7.27019C0.730495 6.92145 0.441296 6.5727 0.149537 6.22395C0.1393 6.21314 0.123944 6.20773 0.113707 6.19962C0.0957922 6.17529 0.0778772 6.15096 0.0625215 6.12663C0.0369286 6.08878 0.0446065 6.05364 0.0829958 6.03201C0.108589 6.01579 0.134181 6.00227 0.162334 5.99146C0.78424 5.74544 1.40359 5.49672 2.02549 5.25071C2.05876 5.23719 2.09459 5.23178 2.13042 5.22097C2.24815 5.1696 2.37612 5.14798 2.48616 5.08039L2.4836 5.08309C2.51176 5.06147 2.55015 5.06687 2.57574 5.03984C2.60901 4.99658 2.67299 5.03984 2.70626 4.98847H2.7037C2.74209 4.95062 2.80352 4.99118 2.83679 4.93981L2.83423 4.94251C2.86238 4.92089 2.90077 4.92629 2.92636 4.89926C2.95963 4.856 3.02617 4.89926 3.05688 4.84789L3.05433 4.8506C3.09271 4.81275 3.1567 4.856 3.18741 4.79923H3.18485C3.23603 4.81004 3.28722 4.80193 3.33329 4.7776C3.36912 4.76138 3.40239 4.76409 3.44078 4.7749C3.60713 4.82086 3.63016 4.84519 3.63016 5.02902C3.63272 5.5535 3.63016 6.08067 3.63016 6.60514C3.63016 7.6622 3.63016 8.72195 3.63016 9.77901C3.63016 9.8493 3.63016 9.91688 3.62505 9.98717C3.62249 10.0331 3.56106 10.0629 3.52523 10.0358C3.47917 10.0007 3.43566 9.96014 3.39215 9.91688C3.34352 9.87092 3.28978 9.86281 3.22836 9.87633L3.23092 9.87363C3.22324 9.84929 3.20532 9.83578 3.18485 9.82496L3.18741 9.82767C3.17717 9.80604 3.16182 9.78982 3.14134 9.77901L3.1439 9.78171C3.13366 9.76008 3.11831 9.74656 3.10039 9.73305C3.0876 9.71412 3.07224 9.70061 3.05688 9.68438C2.99802 9.57895 2.90077 9.50596 2.83167 9.40593L2.83423 9.40863C2.82399 9.387 2.80863 9.37078 2.78816 9.35997L2.79072 9.36267C2.78048 9.34375 2.76513 9.32753 2.74465 9.31401L2.74721 9.31671C2.73441 9.29779 2.71906 9.28157 2.7037 9.26805C2.69091 9.25183 2.67555 9.23561 2.66275 9.21939V9.21669C2.61925 9.15451 2.57574 9.09233 2.52199 9.03555L2.52455 9.03826C2.51432 9.01663 2.49896 9.00041 2.47849 8.9896L2.48105 8.9923C2.47081 8.97067 2.45545 8.95445 2.43498 8.94364L2.43754 8.94634C2.4273 8.92742 2.40939 8.9112 2.39403 8.89768C2.38123 8.87875 2.36588 8.86524 2.35052 8.84902C2.33517 8.8355 2.32237 8.81928 2.30957 8.80035L2.30701 8.79765C2.29166 8.78684 2.27886 8.77061 2.26863 8.75439L2.26607 8.74899C2.2328 8.71114 2.21744 8.65437 2.17649 8.61922L2.17905 8.62192C2.16881 8.6003 2.15346 8.58408 2.13298 8.57326L2.13554 8.57597C2.12531 8.55434 2.10995 8.54082 2.09203 8.5273L2.09459 8.53001C2.0818 8.50568 2.06388 8.49216 2.04853 8.47594Z" fill="#45A54A"/>
<path d="M13.2224 17.9084C13.2505 17.9057 13.2812 17.903 13.3094 17.9003C13.3503 17.8705 13.4067 17.9003 13.445 17.8624C13.6012 17.8787 13.7496 17.83 13.9006 17.8057C14.1872 17.7597 14.4739 17.6975 14.758 17.6381C15.1649 17.5542 15.5718 17.465 15.9762 17.3785C16.2603 17.3163 16.5443 17.2515 16.8284 17.1866C16.9001 17.1704 16.9717 17.1541 17.0434 17.1622C16.9231 17.2623 16.7747 17.2704 16.6339 17.3001C16.5546 17.3163 16.4752 17.3272 16.3985 17.3515C16.099 17.4461 15.7868 17.4975 15.4848 17.5813C14.8706 17.7543 14.2487 17.876 13.6319 18.0328C13.184 18.1463 12.7361 18.249 12.2882 18.3518C11.7687 18.4707 11.2466 18.5843 10.7271 18.7059C10.3918 18.7843 10.0591 18.8708 9.7264 18.9573C9.43976 19.033 9.4372 19.0276 9.25293 18.7789C9.05587 18.5113 8.85113 18.249 8.6515 17.9841C8.39813 17.6462 8.14476 17.3082 7.88884 16.9676C7.68921 16.7027 7.48703 16.4377 7.2874 16.1728C7.09546 15.9186 6.90351 15.6672 6.71668 15.4104C6.50682 15.1238 6.30208 14.8319 6.09734 14.5426C6.05127 14.475 5.99497 14.4128 5.97705 14.3263C6.04103 14.2479 6.13573 14.2587 6.21506 14.2452C6.33023 14.2263 6.44796 14.2371 6.56569 14.2371C6.62967 14.2371 6.65782 14.202 6.66806 14.1398C6.80626 14.2993 6.94446 14.4561 7.0801 14.6156C7.25413 14.8237 7.42561 15.0346 7.59964 15.2428C7.88372 15.5861 8.1678 15.9268 8.45188 16.2701C8.56705 16.4107 8.68221 16.5486 8.79994 16.6891C9.08658 17.0298 9.37578 17.3677 9.66242 17.7083C9.80318 17.876 9.94394 18.0436 10.0745 18.2193C10.1666 18.3409 10.2664 18.3896 10.4148 18.3599C10.594 18.3247 10.7757 18.3085 10.9574 18.2815C11.0803 18.2653 11.2031 18.249 11.326 18.2274C11.6843 18.1625 12.0502 18.1355 12.4085 18.0544C12.5519 18.0219 12.6977 18.0138 12.8436 17.9949C12.8871 17.9895 12.9306 17.9895 12.9665 17.9544C12.9946 17.9517 13.0202 17.9517 13.0484 17.9489C13.0944 17.8895 13.1712 17.9598 13.2224 17.9084Z" fill="#030305"/>
<path d="M19.5206 8.28394C19.6665 8.40829 19.8175 8.53265 19.9608 8.65972C20.4394 9.08686 20.9154 9.51401 21.394 9.94116C21.4324 9.9763 21.4708 10.0114 21.5092 10.0493C21.5937 10.1358 21.5911 10.1655 21.4836 10.2034C21.2379 10.2953 20.9897 10.3845 20.744 10.4737C20.7593 10.4305 20.7772 10.3926 20.7286 10.3521C20.2551 9.96819 19.7817 9.5843 19.3108 9.20041C19.1675 9.08416 19.0241 8.96521 18.8808 8.84625C18.8527 8.82192 18.8271 8.79489 18.804 8.76245C18.7836 8.73271 18.7887 8.70297 18.8194 8.68405C18.891 8.6435 18.9627 8.60835 19.0344 8.5705C19.1675 8.50562 19.298 8.44074 19.4311 8.37585C19.472 8.35963 19.5002 8.32719 19.5206 8.28394Z" fill="#030305"/>
<path d="M17.5326 17.0298C17.5326 17.0433 17.5326 17.0568 17.5326 17.0703C17.3764 17.1298 17.2152 17.1704 17.0489 17.1623C17.0463 17.1487 17.0489 17.1325 17.054 17.119C17.1717 17.0947 17.2894 17.0676 17.4072 17.0433C17.4455 17.0352 17.4891 17.0352 17.5326 17.0298Z" fill="#030305"/>
<path d="M2.48928 5.08026C2.39203 5.1884 2.26407 5.21003 2.13354 5.22084C2.23848 5.13974 2.36132 5.10459 2.48928 5.08026Z" fill="#54A651"/>
<path d="M13.7475 12.561C13.7014 12.634 13.6323 12.6069 13.5684 12.6069C13.6221 12.5637 13.6861 12.5637 13.7475 12.561Z" fill="#62AF5C"/>
<path d="M3.19021 4.79919C3.16206 4.86407 3.10831 4.85326 3.05713 4.85055C3.09296 4.80459 3.13903 4.79378 3.19021 4.79919Z" fill="#54A651"/>
<path d="M3.06046 4.8478C3.0323 4.90998 2.98112 4.89917 2.92993 4.89917C2.96576 4.85591 3.00927 4.8451 3.06046 4.8478Z" fill="#54A651"/>
<path d="M2.83987 4.93986C2.80916 5.00204 2.75797 4.99122 2.70679 4.98852C2.74262 4.94527 2.78868 4.93716 2.83987 4.93986Z" fill="#54A651"/>
<path d="M2.70938 4.98838C2.68123 5.04785 2.62748 5.03974 2.57886 5.03974C2.61213 4.99379 2.6582 4.98568 2.70938 4.98838Z" fill="#54A651"/>
<path d="M20.7416 10.4738C20.7083 10.5198 20.6623 10.5279 20.6111 10.5171C20.6444 10.4657 20.6904 10.4684 20.7416 10.4738Z" fill="#C5C3C3"/>
<path d="M23.7317 5.30752C23.7061 5.3724 23.6524 5.36159 23.6038 5.36429C23.6345 5.31833 23.6805 5.30482 23.7317 5.30752Z" fill="#53AA51"/>
<path d="M2.92954 4.89917C2.90906 4.93702 2.87579 4.94513 2.8374 4.94243C2.86044 4.90728 2.89371 4.89917 2.92954 4.89917Z" fill="#54A651"/>
<path d="M2.57797 5.03982C2.5575 5.07767 2.52423 5.08578 2.48584 5.08308C2.50631 5.04793 2.53958 5.03712 2.57797 5.03982Z" fill="#54A651"/>
<path d="M23.9106 5.22369C23.8901 5.26154 23.8569 5.26965 23.821 5.26695C23.8415 5.23451 23.8722 5.22369 23.9106 5.22369Z" fill="#53AA51"/>
<path d="M23.8213 5.26681C23.8008 5.31007 23.7675 5.31548 23.7266 5.31007C23.7496 5.27492 23.7829 5.26411 23.8213 5.26681Z" fill="#53AA51"/>
<path d="M19.4722 8.23804C19.4976 8.24072 19.5128 8.25412 19.5153 8.28094C19.4899 8.28094 19.4747 8.26485 19.4722 8.23804Z" fill="#C5C3C3"/>
<path d="M19.426 8.19745C19.4514 8.20013 19.4666 8.21353 19.4717 8.23767C19.4438 8.23767 19.4311 8.22158 19.426 8.19745Z" fill="#C5C3C3"/>
<path fill-rule="evenodd" clip-rule="evenodd" d="M135.047 10.4488L135.047 10.4488C135.147 10.5117 135.245 10.5734 135.336 10.6469C136.117 11.2795 136.526 12.1149 136.565 13.153C136.593 13.8775 136.465 14.5723 136.194 15.2347C135.897 15.9592 135.441 16.5567 134.847 17.0379C134.397 17.4028 133.898 17.6813 133.366 17.8868C132.623 18.1733 131.861 18.3355 131.073 18.3923C130.722 18.4166 130.371 18.4275 130.018 18.4275H123.333C123.31 18.4275 123.286 18.4276 123.262 18.4278H123.262C123.19 18.4283 123.118 18.4288 123.047 18.4247C122.975 18.4193 122.901 18.4112 122.829 18.3923C122.594 18.3301 122.514 18.2166 122.507 17.9652C122.502 17.7902 122.53 17.6175 122.559 17.447L122.568 17.3893C122.621 17.054 122.677 16.7197 122.733 16.3852L122.733 16.3852C122.771 16.156 122.81 15.9267 122.847 15.697C122.889 15.4455 122.931 15.1941 122.972 14.9427C123.014 14.6913 123.056 14.4399 123.098 14.1884L123.098 14.1859L123.098 14.1857C123.221 13.4323 123.344 12.679 123.466 11.9229L123.681 10.6197L123.896 9.31678C123.96 8.92749 124.024 8.53886 124.087 8.15024L124.087 8.14998C124.15 7.76144 124.214 7.37291 124.278 6.9837L124.28 6.97044L124.28 6.96972C124.382 6.34988 124.483 5.73002 124.585 5.10749L124.585 5.10624C124.674 4.55786 124.764 4.00947 124.851 3.46109C124.871 3.33673 124.905 3.22048 124.953 3.10693C125.02 2.95013 125.13 2.8447 125.283 2.78792C125.388 2.75007 125.493 2.72034 125.606 2.72304C125.655 2.72484 125.704 2.72424 125.752 2.72364C125.777 2.72334 125.801 2.72304 125.826 2.72304C126.335 2.72304 126.844 2.72321 127.354 2.72338C128.882 2.72389 130.41 2.72439 131.94 2.72034C132.485 2.72034 133.025 2.75819 133.56 2.85551C134.251 2.98257 134.911 3.21237 135.495 3.63951C136.409 4.30727 136.874 5.23456 136.905 6.40786C136.921 7.0675 136.81 7.70282 136.57 8.3111C136.237 9.14647 135.71 9.798 134.945 10.2251C134.938 10.23 134.931 10.2344 134.925 10.2389C134.898 10.2566 134.871 10.2744 134.85 10.3198C134.916 10.3658 134.982 10.4075 135.047 10.4488ZM130.082 6.09971H131.663C131.973 6.09971 132.277 6.14027 132.569 6.25652C132.869 6.37547 133.104 6.57012 133.235 6.88912C133.286 7.01348 133.309 7.14055 133.317 7.27031C133.357 8.02728 133.015 8.74099 132.324 9.07893C131.998 9.23843 131.656 9.31142 131.302 9.32224C131.007 9.33035 130.71 9.32934 130.412 9.32832C130.313 9.32798 130.214 9.32765 130.115 9.32765H127.896H127.719C127.607 9.32224 127.591 9.30602 127.607 9.18977C127.616 9.1014 127.631 9.01459 127.645 8.92815L127.658 8.84643C127.788 7.99214 127.919 7.13784 128.044 6.28355C128.072 6.10237 128.092 6.10238 128.25 6.10242L128.257 6.10242H129.048C129.393 6.09971 129.736 6.09971 130.082 6.09971ZM127.014 15.0426H128.946C129.583 15.0399 130.22 15.0399 130.853 15.0426C131.142 15.0426 131.423 14.9939 131.697 14.9047C132.107 14.7695 132.427 14.5154 132.618 14.1018C132.734 13.8476 132.798 13.5746 132.803 13.2961C132.81 12.8203 132.626 12.4608 132.199 12.2607C132.038 12.185 131.869 12.1417 131.695 12.1093C131.441 12.0633 131.185 12.0579 130.929 12.0579H127.415C127.401 12.0579 127.386 12.0576 127.372 12.0573C127.343 12.0567 127.314 12.0561 127.285 12.0579C127.193 12.0606 127.177 12.0769 127.159 12.1796C127.149 12.2451 127.141 12.3096 127.133 12.3743C127.127 12.4164 127.122 12.4587 127.116 12.5013C127.055 12.9014 126.994 13.3021 126.933 13.7029C126.872 14.1037 126.811 14.5045 126.75 14.9047C126.732 15.0182 126.75 15.0372 126.86 15.0426H127.014Z" fill="white"/>
<path fill-rule="evenodd" clip-rule="evenodd" d="M88.1926 2.75998C87.9579 2.76042 87.7231 2.76086 87.4883 2.76086V2.76356H84.7397C84.7104 2.76434 84.6812 2.76467 84.6519 2.765C84.5788 2.76583 84.5057 2.76665 84.4325 2.77438C84.0563 2.81223 83.8823 2.97984 83.8004 3.36644C83.7927 3.39617 83.785 3.42591 83.7799 3.45565C83.7006 3.93687 83.6238 4.41538 83.547 4.8966C83.5074 5.14801 83.4683 5.4001 83.4293 5.6522C83.3903 5.9043 83.3512 6.1564 83.3116 6.40783C83.2489 6.80118 83.1855 7.19386 83.1222 7.58654C83.0588 7.97922 82.9955 8.3719 82.9328 8.76525C82.8893 9.03559 82.8471 9.30661 82.8048 9.57763C82.7626 9.84866 82.7204 10.1197 82.6769 10.39C82.6359 10.6496 82.5943 10.9091 82.5527 11.1686C82.5112 11.4282 82.4696 11.6877 82.4286 11.9472C82.389 12.1987 82.3493 12.4508 82.3096 12.7029C82.2699 12.955 82.2303 13.2071 82.1906 13.4585C82.1807 13.5212 82.1708 13.584 82.1609 13.6469C82.0914 14.0875 82.0217 14.5296 81.95 14.9697C81.925 15.1231 81.8997 15.2766 81.8745 15.4301C81.8196 15.7635 81.7646 16.0972 81.712 16.4323C81.643 16.8723 81.574 17.315 81.505 17.7577L81.5047 17.7597C81.4868 17.8759 81.4791 17.9895 81.5047 18.1057C81.5354 18.2463 81.6148 18.3409 81.7427 18.3869C81.84 18.422 81.9398 18.4382 82.0447 18.4382H84.5503C84.6629 18.4382 84.7704 18.4193 84.8753 18.3869C85.034 18.3409 85.144 18.2328 85.2182 18.0814C85.272 17.9705 85.3027 17.8516 85.3206 17.7272C85.3411 17.5853 85.3622 17.444 85.3833 17.3028C85.4044 17.1615 85.4255 17.0203 85.446 16.8783L85.6994 15.1103C85.724 14.9399 85.7475 14.7701 85.7708 14.6007C85.7961 14.418 85.8213 14.2356 85.8478 14.0532C85.8555 13.9992 85.8657 13.9451 85.8785 13.8937C85.899 13.8072 85.9067 13.8018 85.9988 13.7964H86.0858H87.8006C87.8098 13.7964 87.8194 13.7967 87.8291 13.797C87.8487 13.7976 87.8687 13.7982 87.8876 13.7964C87.9541 13.7937 87.9976 13.8234 88.0309 13.8829C88.0654 13.9464 88.1006 14.01 88.1358 14.0735C88.171 14.137 88.2062 14.2006 88.2408 14.2641L90.0143 17.5245C90.0988 17.6786 90.1832 17.8327 90.2831 17.9759C90.4392 18.2003 90.6414 18.3571 90.9126 18.4031C91.0304 18.422 91.1455 18.4328 91.2633 18.4328H94.035C94.1015 18.4328 94.168 18.4328 94.232 18.422C94.4624 18.3815 94.6082 18.2166 94.6287 17.9922C94.6415 17.8543 94.6006 17.7326 94.534 17.6164C94.3778 17.3446 94.2216 17.0734 94.0654 16.8022C93.9094 16.5314 93.7534 16.2605 93.5973 15.9889C93.2092 15.318 92.8225 14.6457 92.4361 13.9741C92.2899 13.7201 92.1439 13.4662 91.9978 13.2124C91.9696 13.1665 91.944 13.1205 91.921 13.0719C91.9005 13.0286 91.9159 12.9962 91.9517 12.9745C91.971 12.9623 91.9917 12.9516 92.0117 12.9413C92.0182 12.938 92.0247 12.9346 92.031 12.9313C92.4303 12.7123 92.8091 12.4636 93.152 12.1581C94.0478 11.3633 94.6236 10.3657 94.9128 9.17347C95.0024 8.79769 95.0638 8.4165 95.092 8.02991C95.1431 7.33782 95.115 6.65385 94.9282 5.98339C94.7285 5.26156 94.3753 4.63706 93.8481 4.12881C93.2493 3.55027 92.5352 3.20963 91.7572 2.99876C91.1634 2.83926 90.5595 2.76897 89.9503 2.76356C89.3654 2.75777 88.7792 2.75887 88.1926 2.75998ZM86.6184 10.5631H87.7138C87.8139 10.5631 87.9142 10.5636 88.0146 10.564C88.2659 10.5651 88.5177 10.5662 88.7682 10.5604C89.2775 10.5496 89.7715 10.4496 90.2347 10.2144C91.1074 9.76832 91.6091 8.85996 91.5374 7.83805C91.5067 7.36765 91.3301 6.97024 90.9897 6.66475C90.7696 6.46739 90.5111 6.33763 90.2322 6.25923C89.9199 6.17001 89.6026 6.12406 89.2776 6.12406C88.9021 6.12586 88.5255 6.12526 88.1493 6.12466C87.9613 6.12436 87.7734 6.12406 87.5859 6.12406C87.5347 6.12406 87.4835 6.12375 87.4323 6.12345C87.3299 6.12285 87.2276 6.12225 87.1252 6.12406C87.01 6.12676 86.9998 6.13757 86.9819 6.25382C86.9569 6.41234 86.934 6.572 86.9112 6.73132C86.899 6.81654 86.8869 6.90166 86.8744 6.98646L86.6057 8.81941C86.5903 8.92297 86.5746 9.02652 86.5589 9.13017C86.5251 9.35391 86.4913 9.57806 86.4598 9.80347C86.4291 10.025 86.4009 10.2466 86.3728 10.4681L86.3728 10.4685C86.3651 10.528 86.3881 10.5577 86.4419 10.5604C86.5007 10.5631 86.5596 10.5631 86.6184 10.5631Z" fill="white"/>
<path fill-rule="evenodd" clip-rule="evenodd" d="M160.722 2.71222C160.044 2.49865 159.348 2.40403 158.641 2.39592C158.217 2.38511 157.794 2.44188 157.375 2.51217C156.822 2.59868 156.284 2.75548 155.762 2.96094C155.035 3.24751 154.36 3.6314 153.756 4.14506C152.719 5.02639 152.038 6.14021 151.77 7.52439C151.732 7.72309 151.703 7.92359 151.674 8.12295C151.668 8.16771 151.661 8.21241 151.655 8.25702C151.615 8.52467 151.574 8.79163 151.533 9.0586C151.492 9.32557 151.451 9.59254 151.411 9.86018C151.372 10.1238 151.333 10.3874 151.295 10.6509C151.257 10.9145 151.218 11.1781 151.179 11.4417C151.148 11.6425 151.117 11.8433 151.085 12.0441C151.023 12.4462 150.96 12.8483 150.902 13.2503C150.833 13.7315 150.784 14.2155 150.843 14.7048C150.889 15.0833 150.969 15.4509 151.109 15.8024C151.363 16.4269 151.752 16.9405 152.251 17.3677C152.747 17.7894 153.305 18.0949 153.902 18.3193C154.715 18.6275 155.56 18.7708 156.422 18.7897C157.098 18.8059 157.766 18.7194 158.429 18.5734C159.099 18.4247 159.742 18.2004 160.361 17.8922C160.975 17.5867 161.541 17.2028 162.04 16.7162C162.967 15.8132 163.509 14.7048 163.65 13.3801C163.67 13.1881 163.69 12.9962 163.71 12.8043C163.73 12.6123 163.75 12.4204 163.77 12.2284C163.797 11.9647 163.826 11.7003 163.855 11.4356C163.885 11.1549 163.915 10.8739 163.944 10.5928C163.975 10.2967 164.005 10.0007 164.035 9.70457C164.065 9.40859 164.095 9.11262 164.126 8.81664C164.136 8.7168 164.145 8.61719 164.154 8.51775C164.176 8.27791 164.198 8.03903 164.228 7.80014C164.308 7.17564 164.269 6.56195 164.113 5.95908C163.888 5.08046 163.414 4.36674 162.746 3.79631C162.145 3.28265 161.459 2.94202 160.722 2.71222ZM156.274 15.4024C156.512 15.451 156.753 15.4672 156.996 15.4618H156.996C157.047 15.4618 157.098 15.4618 157.15 15.4645C157.769 15.4429 158.353 15.2888 158.875 14.9211C159.381 14.5616 159.719 14.0723 159.87 13.4423C159.927 13.2054 159.954 12.9636 159.981 12.7219C159.989 12.6493 159.997 12.5767 160.006 12.5042C160.047 12.1596 160.089 11.8142 160.131 11.4688C160.173 11.1235 160.216 10.7781 160.257 10.4334C160.344 9.69535 160.428 8.96001 160.513 8.22197C160.541 7.96784 160.556 7.71371 160.525 7.45689C160.459 6.90268 160.213 6.46472 159.775 6.15111C159.512 5.96187 159.215 5.84833 158.903 5.78615C158.585 5.72397 158.263 5.71586 157.94 5.73478C157.511 5.75911 157.101 5.86725 156.717 6.07271C155.96 6.47553 155.499 7.12166 155.35 8.00298C155.286 8.38751 155.234 8.77584 155.183 9.16363C155.159 9.34293 155.135 9.52211 155.11 9.70076C155.092 9.83052 155.075 9.96096 155.059 10.0914C155.042 10.2218 155.025 10.3523 155.008 10.4821L154.8 11.95C154.784 12.0636 154.769 12.1771 154.754 12.2905C154.73 12.4687 154.707 12.6465 154.68 12.8233C154.639 13.0909 154.608 13.3585 154.626 13.6316C154.654 14.0614 154.795 14.4453 155.079 14.7616C155.407 15.1239 155.819 15.3104 156.274 15.4024Z" fill="white"/>
<path fill-rule="evenodd" clip-rule="evenodd" d="M77.3226 2.7095C76.6444 2.49593 75.9483 2.40131 75.2419 2.3932C74.8069 2.38779 74.3769 2.44186 73.9521 2.50944C73.1228 2.65002 72.3295 2.92037 71.577 3.31778C70.9116 3.67193 70.3076 4.118 69.7881 4.68573C69.1764 5.35619 68.7413 6.13208 68.488 7.02422C68.3958 7.34594 68.3446 7.67306 68.2935 8.00017C68.2372 8.35701 68.1854 8.71384 68.1337 9.07068C68.1078 9.24913 68.0819 9.42758 68.0554 9.60603L67.6792 12.0797C67.6586 12.2148 67.6396 12.3503 67.6207 12.4858C67.5926 12.6868 67.5644 12.8879 67.5308 13.0881C67.4412 13.6099 67.3952 14.1289 67.4412 14.6588C67.4745 15.0238 67.5538 15.3752 67.6792 15.7159C67.9044 16.3268 68.2653 16.8351 68.7337 17.2649C69.2558 17.7434 69.8546 18.0787 70.5021 18.322C71.3518 18.641 72.2322 18.7816 73.1331 18.7951C73.5605 18.8005 73.9828 18.7545 74.4025 18.6924C75.2931 18.5626 76.1479 18.3004 76.9618 17.8921C77.7091 17.5164 78.3822 17.0324 78.9503 16.389C79.3752 15.9105 79.7053 15.3644 79.9331 14.7534C80.1199 14.2533 80.23 13.7342 80.2658 13.1962C80.2761 13.0556 80.2889 12.9178 80.3042 12.7799L80.5192 10.7983C80.5601 10.4225 80.6011 10.044 80.6395 9.66821C80.6512 9.55905 80.663 9.44989 80.6748 9.34071C80.7351 8.78206 80.7954 8.2231 80.8468 7.66224C80.8903 7.18103 80.8724 6.70251 80.7777 6.22941C80.5755 5.22642 80.0815 4.41809 79.3291 3.78007C78.7328 3.27182 78.052 2.93929 77.3226 2.7095ZM72.4036 15.2616C72.7849 15.4211 73.1842 15.4644 73.5886 15.4644C74.1542 15.4644 74.6967 15.3644 75.206 15.0832C75.9354 14.6831 76.3859 14.0559 76.5189 13.1962C76.5732 12.8468 76.6119 12.4948 76.6506 12.1429C76.6685 11.9803 76.6863 11.8176 76.7058 11.6552C76.748 11.2943 76.7909 10.9334 76.8337 10.5725C76.8766 10.2116 76.9195 9.85066 76.9617 9.48975C76.9781 9.35459 76.9936 9.21942 77.0092 9.08426C77.0325 8.88149 77.0559 8.67872 77.082 8.47596C77.1229 8.15965 77.1613 7.84605 77.1332 7.52704C77.0845 7.00257 76.8824 6.56191 76.4857 6.23208C76.1965 5.99148 75.8663 5.8536 75.508 5.78061C75.1958 5.71843 74.881 5.71032 74.5662 5.72654C74.0979 5.74816 73.6551 5.87252 73.2405 6.10502C72.7824 6.36455 72.4266 6.73222 72.1886 7.22425C72.0351 7.54596 71.9481 7.8866 71.9045 8.24346C71.8645 8.58016 71.8181 8.9152 71.7716 9.25118C71.7587 9.34413 71.7458 9.43715 71.7331 9.5303C71.6934 9.8209 71.6531 10.1115 71.6128 10.4021C71.5725 10.6927 71.5322 10.9834 71.4925 11.274C71.4621 11.4976 71.4325 11.7207 71.4029 11.9435C71.3552 12.3029 71.3076 12.6617 71.257 13.0205C71.2238 13.253 71.2135 13.4828 71.2366 13.7153C71.257 13.9234 71.3031 14.1262 71.3901 14.3181C71.6025 14.7831 71.9583 15.0751 72.4036 15.2616Z" fill="white"/>
<path fill-rule="evenodd" clip-rule="evenodd" d="M59.6453 2.75996C59.4106 2.7604 59.1758 2.76084 58.9411 2.76084V2.75543H56.1694C56.0619 2.75543 55.9493 2.75543 55.8418 2.77165C55.5091 2.82032 55.335 2.99334 55.2685 3.34479C55.2378 3.51232 55.2122 3.67986 55.1866 3.8474L55.1866 3.84763C55.1431 4.1342 55.1002 4.42076 55.0573 4.70733C55.0145 4.9939 54.9716 5.28046 54.9281 5.56703C54.863 6.00329 54.796 6.43747 54.7287 6.87321C54.7192 6.93432 54.7098 6.99546 54.7003 7.05664L54.4009 9.02746C54.3254 9.52083 54.2523 10.0129 54.1791 10.5055C54.1457 10.7309 54.1122 10.9564 54.0784 11.1821C53.9965 11.7336 53.9146 12.2851 53.8327 12.8339C53.7918 13.1056 53.7508 13.3767 53.7099 13.6477C53.6689 13.9187 53.628 14.1897 53.587 14.4614C53.5499 14.7061 53.5141 14.9507 53.4783 15.1954C53.4424 15.4401 53.4066 15.6847 53.3695 15.9294C53.3326 16.1738 53.295 16.4182 53.2573 16.6626C53.2008 17.0292 53.1443 17.3958 53.0905 17.7623C53.0777 17.8543 53.0752 17.9489 53.0854 18.0408C53.1085 18.2165 53.198 18.3409 53.3669 18.3896C53.4591 18.4139 53.5512 18.4328 53.6485 18.4328H56.154C56.2564 18.4328 56.3562 18.4112 56.456 18.3814C56.63 18.3301 56.7478 18.2138 56.8169 18.0381C56.8604 17.93 56.8885 17.8191 56.9039 17.7029C56.9781 17.127 57.0549 16.5512 57.1342 15.9781C57.1922 15.5546 57.2525 15.1311 57.3128 14.7076C57.3429 14.4958 57.3731 14.2839 57.4029 14.0721C57.4252 13.9155 57.4233 13.8449 57.4575 13.8132C57.49 13.7831 57.5552 13.7883 57.7049 13.7883C57.9977 13.7872 58.2909 13.787 58.5842 13.7867C59.0241 13.7864 59.4642 13.7861 59.9034 13.7829C60.6609 13.7774 61.4082 13.6828 62.1427 13.4855C62.9182 13.28 63.645 12.9556 64.3002 12.4717C65.3086 11.7255 65.9817 10.7198 66.3476 9.48165C66.4986 8.97069 66.5729 8.44081 66.6061 7.90823C66.6471 7.22425 66.5882 6.54839 66.386 5.89145C66.1992 5.27776 65.8946 4.73707 65.4647 4.27748C64.8428 3.61243 64.075 3.23124 63.2304 3.00145C62.6316 2.83924 62.0199 2.76895 61.4031 2.76354C60.8182 2.75775 60.2319 2.75885 59.6453 2.75996ZM58.127 10.5631H59.248H59.9953C60.2435 10.5631 60.4918 10.555 60.74 10.5225C61.2109 10.4603 61.6537 10.3062 62.0529 10.0305C62.8617 9.46817 63.1918 8.42734 62.9871 7.51357C62.9205 7.22159 62.7823 6.97017 62.5801 6.7566C62.3396 6.50518 62.0478 6.35108 61.7253 6.25646C61.4131 6.16454 61.0958 6.12128 60.7707 6.12128H58.6824H58.6388L58.6386 6.1213C58.4955 6.12669 58.4929 6.12679 58.4725 6.27268C58.4008 6.76741 58.3292 7.26485 58.2601 7.76229C58.2178 8.07181 58.1763 8.382 58.1347 8.6922C58.0931 9.00245 58.0515 9.3127 58.0093 9.62227C57.9734 9.8845 57.9376 10.144 57.9018 10.4036C57.9012 10.4106 57.9004 10.4177 57.8997 10.425C57.8972 10.4484 57.8947 10.4727 57.8966 10.4955C57.8992 10.5279 57.9197 10.555 57.9504 10.5577C58.0093 10.5631 58.0681 10.5631 58.127 10.5631Z" fill="white"/>
<path d="M23.9978 14.9804C23.9747 15.0129 23.9466 15.0237 23.9082 15.021C23.9312 14.9858 23.9619 14.9804 23.9978 14.9804Z" fill="#53AA51"/>
<path d="M24.2197 14.8913C24.1967 14.9238 24.166 14.9346 24.1301 14.9319C24.1506 14.894 24.1839 14.8859 24.2197 14.8913Z" fill="#53AA51"/>
<path d="M24.0938 14.9373C24.0811 14.9588 24.0659 14.9695 24.0405 14.9695C24.0608 14.9588 24.0761 14.948 24.0938 14.9373Z" fill="#53AA51"/>
<path d="M13.2227 17.9083C13.1715 17.9623 13.1076 17.9569 13.0461 17.9515C13.0513 17.8866 13.0794 17.8569 13.1434 17.8866C13.1664 17.9001 13.1946 17.9028 13.2227 17.9083Z" fill="#62AF5C"/>
<path d="M13.4455 17.8626C13.4071 17.9058 13.361 17.9058 13.3098 17.9004C13.3456 17.8518 13.3968 17.8599 13.4455 17.8626Z" fill="#62AF5C"/>
<path d="M2.8374 9.40857C2.93977 9.47616 3.03959 9.54645 3.06262 9.68703C2.96537 9.61133 2.87579 9.53023 2.8374 9.40857Z" fill="#54A651"/>
<path d="M2.52734 9.03815C2.60668 9.07059 2.66043 9.12466 2.6681 9.21928C2.59644 9.17602 2.54526 9.12195 2.52734 9.03815Z" fill="#54A651"/>
<path d="M2.177 8.61908C2.23842 8.638 2.26658 8.68396 2.27426 8.74884C2.21539 8.72451 2.18468 8.68126 2.177 8.61908Z" fill="#54A651"/>
<path d="M3.05933 9.68445C3.07456 9.70053 3.08725 9.71662 3.10248 9.7327C3.07963 9.72466 3.0644 9.70858 3.05933 9.68445Z" fill="#54A651"/>
<path d="M3.10278 9.73035C3.12563 9.73839 3.14086 9.75448 3.14593 9.77861C3.12309 9.77324 3.10786 9.75716 3.10278 9.73035Z" fill="#54A651"/>
<path d="M3.14453 9.77905C3.16991 9.7871 3.1826 9.80319 3.19022 9.82732C3.16484 9.82195 3.14961 9.80587 3.14453 9.77905Z" fill="#54A651"/>
<path d="M3.18774 9.8277C3.21313 9.83306 3.22836 9.85183 3.23343 9.87596C3.20805 9.8706 3.19282 9.85183 3.18774 9.8277Z" fill="#54A651"/>
<path d="M2.7937 9.3598C2.81655 9.36785 2.83178 9.38393 2.83939 9.40806C2.81401 9.4027 2.79878 9.38661 2.7937 9.3598Z" fill="#54A651"/>
<path d="M2.75024 9.31384C2.77309 9.32189 2.78832 9.33797 2.79593 9.3621C2.77055 9.35406 2.75786 9.33797 2.75024 9.31384Z" fill="#54A651"/>
<path d="M2.70898 9.2655C2.72421 9.28159 2.73691 9.29768 2.75213 9.31377C2.72675 9.3084 2.71406 9.29232 2.70898 9.2655Z" fill="#54A651"/>
<path d="M2.66797 9.21948C2.68066 9.23557 2.69589 9.25166 2.70858 9.26775C2.68574 9.2597 2.67051 9.24361 2.66797 9.21948Z" fill="#54A651"/>
<path d="M2.13354 8.57037C2.15639 8.57842 2.17162 8.5945 2.17923 8.61864C2.15385 8.61327 2.13862 8.59719 2.13354 8.57037Z" fill="#54A651"/>
<path d="M2.48389 8.98962C2.50927 8.99767 2.5245 9.01375 2.52958 9.03788C2.50419 9.03252 2.4915 9.01644 2.48389 8.98962Z" fill="#54A651"/>
<path d="M2.44336 8.9436C2.4662 8.95165 2.48143 8.96773 2.48905 8.99186C2.46367 8.98382 2.44844 8.96773 2.44336 8.9436Z" fill="#54A651"/>
<path d="M2.3999 8.89478C2.41513 8.91086 2.42782 8.92695 2.44305 8.94304C2.42021 8.93768 2.40498 8.92159 2.3999 8.89478Z" fill="#54A651"/>
<path d="M2.35889 8.84644C2.37412 8.86252 2.38681 8.87861 2.40204 8.8947C2.38681 8.87861 2.37158 8.86252 2.35889 8.84644Z" fill="#54A651"/>
<path d="M2.31763 8.80042C2.33032 8.8165 2.34301 8.83259 2.35824 8.84868C2.33286 8.84063 2.32017 8.82455 2.31763 8.80042Z" fill="#54A651"/>
<path d="M2.27686 8.75171C2.28955 8.76511 2.30224 8.7812 2.31493 8.79461C2.29208 8.78925 2.27939 8.77584 2.27686 8.75171Z" fill="#54A651"/>
<path d="M2.08984 8.52441C2.11269 8.53246 2.12792 8.54855 2.13299 8.57268C2.11015 8.56463 2.09746 8.54855 2.08984 8.52441Z" fill="#54A651"/>
<path d="M2.04932 8.47607C2.06455 8.49216 2.07724 8.50825 2.09247 8.52434C2.06962 8.51629 2.05439 8.50021 2.04932 8.47607Z" fill="#54A651"/>
</svg>
