<svg width="23" height="23" viewBox="0 0 23 23" fill="none" xmlns="http://www.w3.org/2000/svg">
    <path fill-rule="evenodd" clip-rule="evenodd" d="M18.9206 0.677088C18.0178 -0.225696 16.5541 -0.225696 15.6514 0.677088L1.54141 14.787C1.22008 15.1084 1.00058 15.5173 0.910351 15.9627L0.0460578 20.2293C-0.107801 20.9888 0.129145 21.7749 0.677119 22.3229C1.22509 22.8708 2.0112 23.1077 2.77071 22.954L7.0373 22.0897C7.4827 21.9994 7.89162 21.78 8.21297 21.4585L22.3229 7.34864C23.2257 6.44586 23.2257 4.98217 22.3229 4.07938L18.9206 0.677088ZM2.95865 17.4948L2.81 18.2286L2.31175 20.6883L4.77136 20.19L5.50517 20.0414L2.95865 17.4948ZM6.67574 17.9426L7.56768 18.8346L17.4916 8.91066L16.5997 8.01871L6.67574 17.9426ZM5.04111 16.308L4.16539 15.4323L14.0893 5.50836L14.965 6.38407L5.04111 16.308ZM20.6882 5.71402L19.1262 7.27603L15.7239 3.87373L17.286 2.31172L18.9206 3.94635L19.0536 4.07938L20.6882 5.71402Z" fill="white"/>
</svg>
